<?xml version="1.0" encoding="UTF-8"?>
<svg xmlns="http://www.w3.org/2000/svg" xmlns:xlink="http://www.w3.org/1999/xlink" viewBox="0 0 43 44.69">
  <defs>
    <style>
      .cls-1 {
        fill: #fff;
      }

      .cls-2 {
        isolation: isolate;
      }

      .cls-3 {
        fill: url(#radial-gradient);
        mix-blend-mode: multiply;
        opacity: .8;
      }

      .cls-4 {
        fill: url(#linear-gradient);
      }
    </style>
    <radialGradient id="radial-gradient" cx="21.5" cy="23.19" fx="21.5" fy="23.19" r="21.5" gradientUnits="userSpaceOnUse">
      <stop offset="0" stop-color="#000056"/>
      <stop offset=".39" stop-color="#7373a2" stop-opacity=".55"/>
      <stop offset=".78" stop-color="#d8d8e5" stop-opacity=".15"/>
      <stop offset="1" stop-color="#fff" stop-opacity="0"/>
    </radialGradient>
    <linearGradient id="linear-gradient" x1="5.92" y1="4.28" x2="26.6" y2="24.96" gradientUnits="userSpaceOnUse">
      <stop offset="0" stop-color="#4676ed"/>
      <stop offset=".19" stop-color="#436de4"/>
      <stop offset=".49" stop-color="#3b54cd"/>
      <stop offset=".87" stop-color="#2f2da8"/>
      <stop offset="1" stop-color="#2b1e99"/>
    </linearGradient>
  </defs>
  <g class="cls-2">
    <g id="Calque_2" data-name="Calque 2">
      <g id="ELEMENTS">
        <circle class="cls-3" cx="21.5" cy="23.19" r="21.5"/>
        <g>
          <path class="cls-4" d="M16.26,0C8.18,0,1.64,6.55,1.64,14.62c0,7.3,5.35,13.35,12.34,14.44v-10.22h-3.71v-4.23h3.71v-3.22c0-3.66,2.18-5.69,5.52-5.69,1.6,0,3.27,.29,3.27,.29v3.6h-1.84c-1.82,0-2.38,1.13-2.38,2.28v2.74h4.06l-.65,4.23h-3.41v10.22c6.99-1.1,12.34-7.15,12.34-14.44C30.88,6.55,24.33,0,16.26,0Z"/>
          <path class="cls-1" d="M13.97,11.4v3.22h-3.71v4.23h3.71v10.22c.74,.12,1.51,.18,2.28,.18s1.54-.06,2.28-.18v-10.22h3.41l.65-4.23h-4.06v-2.74c0-1.16,.57-2.28,2.38-2.28h1.84v-3.6s-1.67-.29-3.27-.29c-3.34,0-5.52,2.02-5.52,5.69Z"/>
        </g>
      </g>
    </g>
  </g>
</svg>