<?xml version="1.0" encoding="UTF-8"?>
<svg xmlns="http://www.w3.org/2000/svg" xmlns:xlink="http://www.w3.org/1999/xlink" viewBox="0 0 43 45.1">
  <defs>
    <style>
      .cls-1 {
        fill: #fff;
      }

      .cls-2 {
        isolation: isolate;
      }

      .cls-3 {
        fill: url(#Degradado_sin_nombre_10);
      }

      .cls-4 {
        fill: url(#radial-gradient);
        mix-blend-mode: multiply;
        opacity: .8;
      }
    </style>
    <radialGradient id="radial-gradient" cx="21.5" cy="23.6" fx="21.5" fy="23.6" r="21.5" gradientUnits="userSpaceOnUse">
      <stop offset="0" stop-color="#000056"/>
      <stop offset=".39" stop-color="#7373a2" stop-opacity=".55"/>
      <stop offset=".78" stop-color="#d8d8e5" stop-opacity=".15"/>
      <stop offset="1" stop-color="#fff" stop-opacity="0"/>
    </radialGradient>
    <linearGradient id="Degradado_sin_nombre_10" data-name="Degradado sin nombre 10" x1="26.6" y1="4.28" x2="5.92" y2="24.96" gradientUnits="userSpaceOnUse">
      <stop offset="0" stop-color="#007ab5"/>
      <stop offset="1" stop-color="#0046e5"/>
    </linearGradient>
  </defs>
  <g class="cls-2">
    <g id="Calque_2" data-name="Calque 2">
      <g id="ELEMENTS">
        <g>
          <circle class="cls-4" cx="21.5" cy="23.6" r="21.5"/>
          <circle class="cls-3" cx="16.26" cy="14.62" r="14.62"/>
          <path class="cls-1" d="M10.13,11.9h2.83v9.1h-2.83V11.9Zm1.42-4.52c.91,0,1.64,.73,1.64,1.64s-.73,1.64-1.64,1.64-1.64-.74-1.64-1.64,.73-1.64,1.64-1.64"/>
          <path class="cls-1" d="M14.73,11.9h2.71v1.24h.04c.38-.72,1.3-1.47,2.68-1.47,2.86,0,3.39,1.88,3.39,4.33v4.99h-2.83v-4.42c0-1.06-.02-2.41-1.47-2.41s-1.7,1.15-1.7,2.34v4.5h-2.83V11.9Z"/>
        </g>
      </g>
    </g>
  </g>
</svg>