<?xml version="1.0" encoding="UTF-8"?>
<svg xmlns="http://www.w3.org/2000/svg" xmlns:xlink="http://www.w3.org/1999/xlink" viewBox="0 0 42 44.17">
  <defs>
    <style>
      .cls-1 {
        fill: #fff;
      }

      .cls-2 {
        isolation: isolate;
      }

      .cls-3 {
        fill: url(#Degradado_sin_nombre_4);
      }

      .cls-4 {
        fill: url(#radial-gradient);
        mix-blend-mode: multiply;
        opacity: .8;
      }
    </style>
    <radialGradient id="radial-gradient" cx="21" cy="23.17" fx="21" fy="23.17" r="21" gradientUnits="userSpaceOnUse">
      <stop offset="0" stop-color="#000056"/>
      <stop offset=".39" stop-color="#7373a2" stop-opacity=".55"/>
      <stop offset=".78" stop-color="#d8d8e5" stop-opacity=".15"/>
      <stop offset="1" stop-color="#fff" stop-opacity="0"/>
    </radialGradient>
    <linearGradient id="Degradado_sin_nombre_4" data-name="Degradado sin nombre 4" x1="25.29" y1="4.28" x2="4.61" y2="24.96" gradientUnits="userSpaceOnUse">
      <stop offset="0" stop-color="#3cf"/>
      <stop offset="1" stop-color="#337fff"/>
    </linearGradient>
  </defs>
  <g class="cls-2">
    <g id="Calque_2" data-name="Calque 2">
      <g id="ELEMENTS">
        <g>
          <circle class="cls-4" cx="21" cy="23.17" r="21"/>
          <circle class="cls-3" cx="14.95" cy="14.62" r="14.62"/>
          <path class="cls-1" d="M23.03,9.61c-.51,.23-1.07,.37-1.61,.46,.26-.04,.64-.51,.79-.7,.23-.29,.43-.62,.54-.98,.01-.03,.02-.06,0-.08-.04-.01-.06,0-.09,0-.61,.33-1.24,.56-1.91,.73-.06,.01-.1,0-.13-.03-.06-.06-.11-.12-.17-.17-.28-.24-.58-.43-.93-.57-.45-.18-.94-.26-1.42-.23-.47,.03-.93,.16-1.35,.38-.42,.22-.79,.52-1.09,.89-.31,.38-.53,.83-.65,1.3-.11,.46-.1,.91-.03,1.37,.01,.08,0,.09-.07,.08-2.63-.39-4.8-1.33-6.57-3.34-.08-.09-.12-.09-.18,0-.77,1.16-.4,3.02,.57,3.94,.13,.12,.26,.24,.4,.36-.05,.01-.69-.06-1.27-.36-.08-.05-.12-.02-.12,.07,0,.13,0,.24,.02,.38,.15,1.17,.96,2.26,2.08,2.69,.13,.06,.28,.1,.42,.13-.25,.06-.52,.1-1.24,.04-.09-.02-.13,.03-.09,.11,.55,1.49,1.73,1.93,2.61,2.19,.12,.02,.24,.02,.36,.05,0,.01-.01,.01-.02,.02-.29,.45-1.31,.78-1.78,.95-.86,.3-1.8,.44-2.71,.35-.15-.02-.18-.02-.22,0-.04,.02,0,.06,.04,.1,.18,.12,.37,.23,.56,.33,.58,.31,1.18,.55,1.81,.72,3.26,.9,6.92,.24,9.37-2.19,1.92-1.91,2.59-4.54,2.59-7.17,0-.1,.12-.16,.19-.21,.5-.38,.9-.82,1.27-1.33,.08-.11,.08-.21,.08-.25h0c0-.06,0-.04-.07-.01Z"/>
        </g>
      </g>
    </g>
  </g>
</svg>